solid Default
  facet normal -1.000000e+00 0.000000e+00 0.000000e+00
    outer loop
      vertex -3.225000e+00 -3.225000e+00 3.930000e+01
      vertex -3.225000e+00 3.225000e+00 3.930000e+01
      vertex -3.225000e+00 -3.225000e+00 3.830000e+01
    endloop
  endfacet
  facet normal -1.000000e+00 0.000000e+00 0.000000e+00
    outer loop
      vertex -3.225000e+00 -3.225000e+00 3.830000e+01
      vertex -3.225000e+00 3.225000e+00 3.930000e+01
      vertex -3.225000e+00 3.225000e+00 3.830000e+01
    endloop
  endfacet
  facet normal 0.000000e+00 -6.123234e-17 1.000000e+00
    outer loop
      vertex -1.625000e+00 -1.625000e+00 3.930000e+01
      vertex -3.225000e+00 -3.225000e+00 3.930000e+01
      vertex 3.225000e+00 -3.225000e+00 3.930000e+01
    endloop
  endfacet
  facet normal 0.000000e+00 -6.123234e-17 1.000000e+00
    outer loop
      vertex -1.625000e+00 1.625000e+00 3.930000e+01
      vertex -3.225000e+00 3.225000e+00 3.930000e+01
      vertex -1.625000e+00 -1.625000e+00 3.930000e+01
    endloop
  endfacet
  facet normal 0.000000e+00 -6.123234e-17 1.000000e+00
    outer loop
      vertex 1.625000e+00 -1.625000e+00 3.930000e+01
      vertex -1.625000e+00 -1.625000e+00 3.930000e+01
      vertex 3.225000e+00 -3.225000e+00 3.930000e+01
    endloop
  endfacet
  facet normal 0.000000e+00 -6.123234e-17 1.000000e+00
    outer loop
      vertex -3.225000e+00 3.225000e+00 3.930000e+01
      vertex -3.225000e+00 -3.225000e+00 3.930000e+01
      vertex -1.625000e+00 -1.625000e+00 3.930000e+01
    endloop
  endfacet
  facet normal 0.000000e+00 -6.123234e-17 1.000000e+00
    outer loop
      vertex 3.225000e+00 3.225000e+00 3.930000e+01
      vertex -3.225000e+00 3.225000e+00 3.930000e+01
      vertex -1.625000e+00 1.625000e+00 3.930000e+01
    endloop
  endfacet
  facet normal 0.000000e+00 -6.123234e-17 1.000000e+00
    outer loop
      vertex 3.225000e+00 3.225000e+00 3.930000e+01
      vertex 1.625000e+00 1.625000e+00 3.930000e+01
      vertex 3.225000e+00 -3.225000e+00 3.930000e+01
    endloop
  endfacet
  facet normal 0.000000e+00 -6.123234e-17 1.000000e+00
    outer loop
      vertex 3.225000e+00 3.225000e+00 3.930000e+01
      vertex -1.625000e+00 1.625000e+00 3.930000e+01
      vertex 1.625000e+00 1.625000e+00 3.930000e+01
    endloop
  endfacet
  facet normal 0.000000e+00 -6.123234e-17 1.000000e+00
    outer loop
      vertex 1.625000e+00 1.625000e+00 3.930000e+01
      vertex 1.625000e+00 -1.625000e+00 3.930000e+01
      vertex 3.225000e+00 -3.225000e+00 3.930000e+01
    endloop
  endfacet
  facet normal 0.000000e+00 -1.000000e+00 -6.123234e-17
    outer loop
      vertex -3.225000e+00 -3.225000e+00 3.930000e+01
      vertex -3.225000e+00 -3.225000e+00 3.830000e+01
      vertex 3.225000e+00 -3.225000e+00 3.930000e+01
    endloop
  endfacet
  facet normal 0.000000e+00 -1.000000e+00 -6.123234e-17
    outer loop
      vertex 3.225000e+00 -3.225000e+00 3.930000e+01
      vertex -3.225000e+00 -3.225000e+00 3.830000e+01
      vertex 3.225000e+00 -3.225000e+00 3.830000e+01
    endloop
  endfacet
  facet normal 0.000000e+00 6.123234e-17 -1.000000e+00
    outer loop
      vertex -2.225000e+00 -2.225000e+00 3.830000e+01
      vertex 2.225000e+00 -2.225000e+00 3.830000e+01
      vertex 3.225000e+00 -3.225000e+00 3.830000e+01
    endloop
  endfacet
  facet normal 0.000000e+00 6.123234e-17 -1.000000e+00
    outer loop
      vertex -2.225000e+00 2.225000e+00 3.830000e+01
      vertex -3.225000e+00 3.225000e+00 3.830000e+01
      vertex 3.225000e+00 3.225000e+00 3.830000e+01
    endloop
  endfacet
  facet normal 0.000000e+00 6.123234e-17 -1.000000e+00
    outer loop
      vertex -3.225000e+00 -3.225000e+00 3.830000e+01
      vertex -3.225000e+00 3.225000e+00 3.830000e+01
      vertex -2.225000e+00 2.225000e+00 3.830000e+01
    endloop
  endfacet
  facet normal 0.000000e+00 6.123234e-17 -1.000000e+00
    outer loop
      vertex 2.225000e+00 2.225000e+00 3.830000e+01
      vertex -2.225000e+00 2.225000e+00 3.830000e+01
      vertex 3.225000e+00 3.225000e+00 3.830000e+01
    endloop
  endfacet
  facet normal 0.000000e+00 6.123234e-17 -1.000000e+00
    outer loop
      vertex -3.225000e+00 -3.225000e+00 3.830000e+01
      vertex -2.225000e+00 2.225000e+00 3.830000e+01
      vertex -2.225000e+00 -2.225000e+00 3.830000e+01
    endloop
  endfacet
  facet normal 0.000000e+00 6.123234e-17 -1.000000e+00
    outer loop
      vertex -3.225000e+00 -3.225000e+00 3.830000e+01
      vertex -2.225000e+00 -2.225000e+00 3.830000e+01
      vertex 3.225000e+00 -3.225000e+00 3.830000e+01
    endloop
  endfacet
  facet normal 0.000000e+00 6.123234e-17 -1.000000e+00
    outer loop
      vertex 3.225000e+00 -3.225000e+00 3.830000e+01
      vertex 2.225000e+00 -2.225000e+00 3.830000e+01
      vertex 3.225000e+00 3.225000e+00 3.830000e+01
    endloop
  endfacet
  facet normal 0.000000e+00 6.123234e-17 -1.000000e+00
    outer loop
      vertex 2.225000e+00 -2.225000e+00 3.830000e+01
      vertex 2.225000e+00 2.225000e+00 3.830000e+01
      vertex 3.225000e+00 3.225000e+00 3.830000e+01
    endloop
  endfacet
  facet normal 0.000000e+00 1.000000e+00 6.123234e-17
    outer loop
      vertex -3.225000e+00 3.225000e+00 3.830000e+01
      vertex -3.225000e+00 3.225000e+00 3.930000e+01
      vertex 3.225000e+00 3.225000e+00 3.930000e+01
    endloop
  endfacet
  facet normal 0.000000e+00 1.000000e+00 6.123234e-17
    outer loop
      vertex 3.225000e+00 3.225000e+00 3.830000e+01
      vertex -3.225000e+00 3.225000e+00 3.830000e+01
      vertex 3.225000e+00 3.225000e+00 3.930000e+01
    endloop
  endfacet
  facet normal 1.000000e+00 0.000000e+00 0.000000e+00
    outer loop
      vertex 3.225000e+00 3.225000e+00 3.930000e+01
      vertex 3.225000e+00 -3.225000e+00 3.930000e+01
      vertex 3.225000e+00 -3.225000e+00 3.830000e+01
    endloop
  endfacet
  facet normal 1.000000e+00 0.000000e+00 0.000000e+00
    outer loop
      vertex 3.225000e+00 3.225000e+00 3.830000e+01
      vertex 3.225000e+00 3.225000e+00 3.930000e+01
      vertex 3.225000e+00 -3.225000e+00 3.830000e+01
    endloop
  endfacet
  facet normal 1.000000e+00 0.000000e+00 0.000000e+00
    outer loop
      vertex -1.625000e+00 -1.625000e+00 0.000000e+00
      vertex -1.625000e+00 1.625000e+00 0.000000e+00
      vertex -1.625000e+00 1.625000e+00 3.930000e+01
    endloop
  endfacet
  facet normal 1.000000e+00 0.000000e+00 0.000000e+00
    outer loop
      vertex -1.625000e+00 -1.625000e+00 3.930000e+01
      vertex -1.625000e+00 -1.625000e+00 0.000000e+00
      vertex -1.625000e+00 1.625000e+00 3.930000e+01
    endloop
  endfacet
  facet normal 0.000000e+00 1.000000e+00 6.123234e-17
    outer loop
      vertex 1.625000e+00 -1.625000e+00 3.930000e+01
      vertex 1.625000e+00 -1.625000e+00 0.000000e+00
      vertex -1.625000e+00 -1.625000e+00 0.000000e+00
    endloop
  endfacet
  facet normal 0.000000e+00 1.000000e+00 6.123234e-17
    outer loop
      vertex -1.625000e+00 -1.625000e+00 3.930000e+01
      vertex 1.625000e+00 -1.625000e+00 3.930000e+01
      vertex -1.625000e+00 -1.625000e+00 0.000000e+00
    endloop
  endfacet
  facet normal -1.000000e+00 0.000000e+00 0.000000e+00
    outer loop
      vertex 1.625000e+00 1.625000e+00 0.000000e+00
      vertex 1.625000e+00 -1.625000e+00 0.000000e+00
      vertex 1.625000e+00 1.625000e+00 3.930000e+01
    endloop
  endfacet
  facet normal -1.000000e+00 0.000000e+00 0.000000e+00
    outer loop
      vertex 1.625000e+00 1.625000e+00 3.930000e+01
      vertex 1.625000e+00 -1.625000e+00 0.000000e+00
      vertex 1.625000e+00 -1.625000e+00 3.930000e+01
    endloop
  endfacet
  facet normal 0.000000e+00 -1.000000e+00 -6.123234e-17
    outer loop
      vertex 1.625000e+00 1.625000e+00 0.000000e+00
      vertex 1.625000e+00 1.625000e+00 3.930000e+01
      vertex -1.625000e+00 1.625000e+00 0.000000e+00
    endloop
  endfacet
  facet normal 0.000000e+00 -1.000000e+00 -6.123234e-17
    outer loop
      vertex -1.625000e+00 1.625000e+00 0.000000e+00
      vertex 1.625000e+00 1.625000e+00 3.930000e+01
      vertex -1.625000e+00 1.625000e+00 3.930000e+01
    endloop
  endfacet
  facet normal -1.000000e+00 0.000000e+00 0.000000e+00
    outer loop
      vertex -2.225000e+00 -2.225000e+00 3.830000e+01
      vertex -2.225000e+00 2.225000e+00 3.830000e+01
      vertex -2.225000e+00 -2.225000e+00 1.000000e+00
    endloop
  endfacet
  facet normal -1.000000e+00 0.000000e+00 0.000000e+00
    outer loop
      vertex -2.225000e+00 -2.225000e+00 1.000000e+00
      vertex -2.225000e+00 2.225000e+00 3.830000e+01
      vertex -2.225000e+00 2.225000e+00 1.000000e+00
    endloop
  endfacet
  facet normal 0.000000e+00 1.000000e+00 6.123234e-17
    outer loop
      vertex -2.225000e+00 2.225000e+00 1.000000e+00
      vertex -2.225000e+00 2.225000e+00 3.830000e+01
      vertex 2.225000e+00 2.225000e+00 3.830000e+01
    endloop
  endfacet
  facet normal 0.000000e+00 1.000000e+00 6.123234e-17
    outer loop
      vertex 2.225000e+00 2.225000e+00 1.000000e+00
      vertex -2.225000e+00 2.225000e+00 1.000000e+00
      vertex 2.225000e+00 2.225000e+00 3.830000e+01
    endloop
  endfacet
  facet normal 1.000000e+00 0.000000e+00 0.000000e+00
    outer loop
      vertex 2.225000e+00 2.225000e+00 3.830000e+01
      vertex 2.225000e+00 -2.225000e+00 3.830000e+01
      vertex 2.225000e+00 -2.225000e+00 1.000000e+00
    endloop
  endfacet
  facet normal 1.000000e+00 0.000000e+00 0.000000e+00
    outer loop
      vertex 2.225000e+00 2.225000e+00 1.000000e+00
      vertex 2.225000e+00 2.225000e+00 3.830000e+01
      vertex 2.225000e+00 -2.225000e+00 1.000000e+00
    endloop
  endfacet
  facet normal 0.000000e+00 -1.000000e+00 -6.123234e-17
    outer loop
      vertex -2.225000e+00 -2.225000e+00 3.830000e+01
      vertex -2.225000e+00 -2.225000e+00 1.000000e+00
      vertex 2.225000e+00 -2.225000e+00 3.830000e+01
    endloop
  endfacet
  facet normal 0.000000e+00 -1.000000e+00 -6.123234e-17
    outer loop
      vertex 2.225000e+00 -2.225000e+00 3.830000e+01
      vertex -2.225000e+00 -2.225000e+00 1.000000e+00
      vertex 2.225000e+00 -2.225000e+00 1.000000e+00
    endloop
  endfacet
  facet normal 0.000000e+00 6.123234e-17 -1.000000e+00
    outer loop
      vertex -1.625000e+00 -1.625000e+00 0.000000e+00
      vertex 1.625000e+00 -1.625000e+00 0.000000e+00
      vertex 3.225000e+00 -3.225000e+00 0.000000e+00
    endloop
  endfacet
  facet normal 0.000000e+00 6.123234e-17 -1.000000e+00
    outer loop
      vertex -1.625000e+00 1.625000e+00 0.000000e+00
      vertex -3.225000e+00 3.225000e+00 0.000000e+00
      vertex 3.225000e+00 3.225000e+00 0.000000e+00
    endloop
  endfacet
  facet normal 0.000000e+00 6.123234e-17 -1.000000e+00
    outer loop
      vertex -3.225000e+00 -3.225000e+00 0.000000e+00
      vertex -3.225000e+00 3.225000e+00 0.000000e+00
      vertex -1.625000e+00 1.625000e+00 0.000000e+00
    endloop
  endfacet
  facet normal 0.000000e+00 6.123234e-17 -1.000000e+00
    outer loop
      vertex 1.625000e+00 1.625000e+00 0.000000e+00
      vertex -1.625000e+00 1.625000e+00 0.000000e+00
      vertex 3.225000e+00 3.225000e+00 0.000000e+00
    endloop
  endfacet
  facet normal 0.000000e+00 6.123234e-17 -1.000000e+00
    outer loop
      vertex -3.225000e+00 -3.225000e+00 0.000000e+00
      vertex -1.625000e+00 1.625000e+00 0.000000e+00
      vertex -1.625000e+00 -1.625000e+00 0.000000e+00
    endloop
  endfacet
  facet normal 0.000000e+00 6.123234e-17 -1.000000e+00
    outer loop
      vertex -3.225000e+00 -3.225000e+00 0.000000e+00
      vertex -1.625000e+00 -1.625000e+00 0.000000e+00
      vertex 3.225000e+00 -3.225000e+00 0.000000e+00
    endloop
  endfacet
  facet normal 0.000000e+00 6.123234e-17 -1.000000e+00
    outer loop
      vertex 3.225000e+00 -3.225000e+00 0.000000e+00
      vertex 1.625000e+00 -1.625000e+00 0.000000e+00
      vertex 3.225000e+00 3.225000e+00 0.000000e+00
    endloop
  endfacet
  facet normal 0.000000e+00 6.123234e-17 -1.000000e+00
    outer loop
      vertex 1.625000e+00 -1.625000e+00 0.000000e+00
      vertex 1.625000e+00 1.625000e+00 0.000000e+00
      vertex 3.225000e+00 3.225000e+00 0.000000e+00
    endloop
  endfacet
  facet normal 0.000000e+00 -6.123234e-17 1.000000e+00
    outer loop
      vertex -2.225000e+00 -2.225000e+00 1.000000e+00
      vertex -3.225000e+00 -3.225000e+00 1.000000e+00
      vertex 3.225000e+00 -3.225000e+00 1.000000e+00
    endloop
  endfacet
  facet normal 0.000000e+00 -6.123234e-17 1.000000e+00
    outer loop
      vertex -2.225000e+00 2.225000e+00 1.000000e+00
      vertex -3.225000e+00 3.225000e+00 1.000000e+00
      vertex -2.225000e+00 -2.225000e+00 1.000000e+00
    endloop
  endfacet
  facet normal 0.000000e+00 -6.123234e-17 1.000000e+00
    outer loop
      vertex 2.225000e+00 -2.225000e+00 1.000000e+00
      vertex -2.225000e+00 -2.225000e+00 1.000000e+00
      vertex 3.225000e+00 -3.225000e+00 1.000000e+00
    endloop
  endfacet
  facet normal 0.000000e+00 -6.123234e-17 1.000000e+00
    outer loop
      vertex -3.225000e+00 3.225000e+00 1.000000e+00
      vertex -3.225000e+00 -3.225000e+00 1.000000e+00
      vertex -2.225000e+00 -2.225000e+00 1.000000e+00
    endloop
  endfacet
  facet normal 0.000000e+00 -6.123234e-17 1.000000e+00
    outer loop
      vertex 3.225000e+00 3.225000e+00 1.000000e+00
      vertex -3.225000e+00 3.225000e+00 1.000000e+00
      vertex -2.225000e+00 2.225000e+00 1.000000e+00
    endloop
  endfacet
  facet normal 0.000000e+00 -6.123234e-17 1.000000e+00
    outer loop
      vertex 3.225000e+00 3.225000e+00 1.000000e+00
      vertex 2.225000e+00 2.225000e+00 1.000000e+00
      vertex 3.225000e+00 -3.225000e+00 1.000000e+00
    endloop
  endfacet
  facet normal 0.000000e+00 -6.123234e-17 1.000000e+00
    outer loop
      vertex 3.225000e+00 3.225000e+00 1.000000e+00
      vertex -2.225000e+00 2.225000e+00 1.000000e+00
      vertex 2.225000e+00 2.225000e+00 1.000000e+00
    endloop
  endfacet
  facet normal 0.000000e+00 -6.123234e-17 1.000000e+00
    outer loop
      vertex 2.225000e+00 2.225000e+00 1.000000e+00
      vertex 2.225000e+00 -2.225000e+00 1.000000e+00
      vertex 3.225000e+00 -3.225000e+00 1.000000e+00
    endloop
  endfacet
  facet normal 0.000000e+00 -1.000000e+00 -6.123234e-17
    outer loop
      vertex -3.225000e+00 -3.225000e+00 1.000000e+00
      vertex -3.225000e+00 -3.225000e+00 0.000000e+00
      vertex 3.225000e+00 -3.225000e+00 1.000000e+00
    endloop
  endfacet
  facet normal 0.000000e+00 -1.000000e+00 -6.123234e-17
    outer loop
      vertex 3.225000e+00 -3.225000e+00 1.000000e+00
      vertex -3.225000e+00 -3.225000e+00 0.000000e+00
      vertex 3.225000e+00 -3.225000e+00 0.000000e+00
    endloop
  endfacet
  facet normal 1.000000e+00 0.000000e+00 0.000000e+00
    outer loop
      vertex 3.225000e+00 3.225000e+00 1.000000e+00
      vertex 3.225000e+00 -3.225000e+00 1.000000e+00
      vertex 3.225000e+00 -3.225000e+00 0.000000e+00
    endloop
  endfacet
  facet normal 1.000000e+00 0.000000e+00 0.000000e+00
    outer loop
      vertex 3.225000e+00 3.225000e+00 0.000000e+00
      vertex 3.225000e+00 3.225000e+00 1.000000e+00
      vertex 3.225000e+00 -3.225000e+00 0.000000e+00
    endloop
  endfacet
  facet normal 0.000000e+00 1.000000e+00 6.123234e-17
    outer loop
      vertex -3.225000e+00 3.225000e+00 0.000000e+00
      vertex -3.225000e+00 3.225000e+00 1.000000e+00
      vertex 3.225000e+00 3.225000e+00 1.000000e+00
    endloop
  endfacet
  facet normal 0.000000e+00 1.000000e+00 6.123234e-17
    outer loop
      vertex 3.225000e+00 3.225000e+00 0.000000e+00
      vertex -3.225000e+00 3.225000e+00 0.000000e+00
      vertex 3.225000e+00 3.225000e+00 1.000000e+00
    endloop
  endfacet
  facet normal -1.000000e+00 0.000000e+00 0.000000e+00
    outer loop
      vertex -3.225000e+00 -3.225000e+00 1.000000e+00
      vertex -3.225000e+00 3.225000e+00 1.000000e+00
      vertex -3.225000e+00 -3.225000e+00 0.000000e+00
    endloop
  endfacet
  facet normal -1.000000e+00 0.000000e+00 0.000000e+00
    outer loop
      vertex -3.225000e+00 -3.225000e+00 0.000000e+00
      vertex -3.225000e+00 3.225000e+00 1.000000e+00
      vertex -3.225000e+00 3.225000e+00 0.000000e+00
    endloop
  endfacet
endsolid Default
